<?xml version="1.0" encoding="utf-8"?>
<svg xmlns="http://www.w3.org/2000/svg" width="84.355" height="60.441" viewBox="0 0 84.355 60.441">
  <g id="Group_318" data-name="Group 318" transform="translate(-341 -1762.078)">
    <g id="Group_317" data-name="Group 317" transform="translate(-0.145 -116)">
      <g id="Group_147" data-name="Group 147" transform="translate(-557.964 -709.682)">
        <path id="Path_51" data-name="Path 51" d="M323.838,259.482l13.036,8.81,13.288-12.222V208.9l-70.285.029-12.965,9.357,12.666,9.479Z" transform="translate(632.802 2379.364)" fill="#e9e9e9" stroke="#000" stroke-linejoin="round" stroke-miterlimit="10" stroke-width="1"/>
        <g id="Rectangle_108" data-name="Rectangle 108" transform="translate(899.108 2597.615)" fill="#e9e9e9" stroke="#000" stroke-linejoin="round" stroke-miterlimit="10" stroke-width="1">
          <rect width="70.585" height="50.586" stroke="none"/>
          <rect x="0.5" y="0.5" width="69.585" height="49.586" fill="none"/>
        </g>
        <line id="Line_84" data-name="Line 84" y1="10.24" x2="14.464" transform="translate(968.5 2588.26)" fill="#fff" stroke="#000" stroke-miterlimit="10" stroke-width="1"/>
        <line id="Line_85" data-name="Line 85" x2="70.249" transform="translate(904.322 2594.155)" fill="#fff" stroke="#000" stroke-miterlimit="10" stroke-width="0.283" stroke-dasharray="2 1 2 1 2 1"/>
        <path id="Path_52" data-name="Path 52" d="M0,0H70.2" transform="translate(908.207 2591.455)" fill="#fff" stroke="#000" stroke-width="0.283" stroke-dasharray="2 1 2 1 2 1"/>
      </g>
    </g>
    <path id="Path_56" data-name="Path 56" d="M.448-4.41A4.316,4.316,0,0,0,4.774.168,3.834,3.834,0,0,0,8.89-3.654L7.714-3.71A2.8,2.8,0,0,1,4.774-.868c-1.792,0-3.08-1.372-3.08-3.542s1.288-3.542,3.08-3.542A2.8,2.8,0,0,1,7.714-5.11L8.89-5.166A3.834,3.834,0,0,0,4.774-8.988,4.316,4.316,0,0,0,.448-4.41Zm17.808,0a4.288,4.288,0,0,0-4.382-4.578A4.28,4.28,0,0,0,9.492-4.41,4.28,4.28,0,0,0,13.874.168,4.288,4.288,0,0,0,18.256-4.41ZM17-4.41c0,2.156-1.218,3.542-3.122,3.542S10.738-2.254,10.738-4.41s1.232-3.542,3.136-3.542S17-6.566,17-4.41ZM20.468,0V-3.878h3.78V-4.886h-3.78V-7.812h4.816V-8.82h-6.02V0Zm6.944,0V-3.878h3.78V-4.886h-3.78V-7.812h4.816V-8.82h-6.02V0ZM39.438-1.008h-5.11V-4.046H38.29V-5.04H34.328V-7.812h4.984V-8.82h-6.16V0h6.286Zm7.392,0H41.72V-4.046h3.962V-5.04H41.72V-7.812H46.7V-8.82h-6.16V0H46.83Zm2.632-5.74h1.652V0h1.218V-8.876h-.8a1.831,1.831,0,0,1-2.072,1.344Z" transform="translate(348 1801.048)"/>
  </g>
</svg>
