<svg width="41" height="9" viewBox="0 0 41 9" fill="none" xmlns="http://www.w3.org/2000/svg">
<path d="M7.61719 2.62695C7.80469 3.11523 7.89844 3.64648 7.89844 4.2207C7.89844 4.79492 7.80469 5.32617 7.61719 5.81445C7.43359 6.30273 7.17578 6.71875 6.84375 7.0625C6.51562 7.40234 6.11914 7.66797 5.6543 7.85938C5.18945 8.05078 4.68555 8.14648 4.14258 8.14648C3.03711 8.14648 2.13477 7.7832 1.43555 7.05664C0.736328 6.32617 0.386719 5.38086 0.386719 4.2207C0.386719 3.06055 0.736328 2.11719 1.43555 1.39062C2.13477 0.660156 3.03711 0.294922 4.14258 0.294922C4.68555 0.294922 5.18945 0.390625 5.6543 0.582031C6.11914 0.773438 6.51562 1.04102 6.84375 1.38477C7.17578 1.72461 7.43359 2.13867 7.61719 2.62695ZM6.08789 6.43555C6.57227 5.88477 6.81445 5.14648 6.81445 4.2207C6.81445 3.29492 6.57227 2.55859 6.08789 2.01172C5.60742 1.46094 4.95898 1.18555 4.14258 1.18555C3.32617 1.18555 2.67383 1.46094 2.18555 2.01172C1.69727 2.5625 1.45312 3.29883 1.45312 4.2207C1.45312 5.14258 1.69727 5.87891 2.18555 6.42969C2.67383 6.98047 3.32617 7.25586 4.14258 7.25586C4.95898 7.25586 5.60742 6.98242 6.08789 6.43555Z" fill="black"/>
<path d="M9.93164 5.22852V5.52734C9.93164 6.08984 10.0879 6.53516 10.4004 6.86328C10.7168 7.1875 11.1191 7.34961 11.6074 7.34961C12.1152 7.34961 12.5078 7.17578 12.7852 6.82812C13.0664 6.47656 13.207 5.99609 13.207 5.38672C13.207 4.77734 13.0664 4.29688 12.7852 3.94531C12.5078 3.59375 12.1152 3.41797 11.6074 3.41797C11.1191 3.41797 10.7168 3.58008 10.4004 3.9043C10.0879 4.22852 9.93164 4.66992 9.93164 5.22852ZM9.93164 6.91016L9.71484 8H8.95898V0.441406H9.95508V3.85742C10.0801 3.50586 10.3086 3.21094 10.6406 2.97266C10.9727 2.73047 11.3711 2.60938 11.8359 2.60938C12.3359 2.60938 12.7695 2.73438 13.1367 2.98438C13.5078 3.23438 13.7832 3.56641 13.9629 3.98047C14.1465 4.39453 14.2383 4.86328 14.2383 5.38672C14.2383 6.1875 14.0234 6.84766 13.5938 7.36719C13.168 7.88672 12.5781 8.14648 11.8242 8.14648C11.3594 8.14648 10.959 8.0293 10.623 7.79492C10.291 7.55664 10.0605 7.26172 9.93164 6.91016Z" fill="black"/>
<path d="M18.5391 5.6621V5.41016L17.3613 5.6621C17.166 5.70507 17.0117 5.74218 16.8984 5.77343C16.7852 5.80468 16.6641 5.84765 16.5352 5.90233C16.4062 5.95311 16.3086 6.00976 16.2422 6.07226C16.1758 6.13085 16.1191 6.20898 16.0723 6.30664C16.0293 6.40039 16.0078 6.50976 16.0078 6.63476C16.0078 6.86522 16.084 7.05272 16.2363 7.19726C16.3926 7.34179 16.6152 7.41405 16.9043 7.41405C17.373 7.41405 17.7617 7.25194 18.0703 6.92772C18.3828 6.60351 18.5391 6.18163 18.5391 5.6621ZM19.5 4.61327V6.96875C19.5 7.24219 19.6348 7.37891 19.9043 7.37891C20.0645 7.37891 20.2168 7.33788 20.3613 7.25585V7.79492C20.1543 8.00195 19.8867 8.10546 19.5586 8.10546C19.2891 8.10546 19.0645 8.01171 18.8848 7.82421C18.709 7.63671 18.6055 7.38671 18.5742 7.07421C18.4297 7.38671 18.1836 7.64453 17.8359 7.84766C17.4883 8.04688 17.1055 8.14647 16.6875 8.14647C16.1758 8.14647 15.7676 8.01757 15.4629 7.75976C15.1621 7.49804 15.0117 7.14257 15.0117 6.69335C15.0117 6.45116 15.0605 6.23827 15.1582 6.05468C15.2559 5.86718 15.4023 5.71093 15.5977 5.58593C15.793 5.45702 16.0117 5.3496 16.2539 5.26366C16.4961 5.17772 16.7852 5.10156 17.1211 5.03516L18.5391 4.74805V4.54297C18.5391 4.17969 18.4375 3.89648 18.2344 3.69336C18.0312 3.48633 17.748 3.38281 17.3848 3.38281C16.6895 3.38281 16.25 3.73438 16.0664 4.43749L15.1758 4.31444C15.2812 3.80272 15.5273 3.39061 15.9141 3.07811C16.3047 2.76561 16.7988 2.60938 17.3965 2.60938C18.0645 2.60938 18.582 2.77929 18.9492 3.11913C19.3164 3.45897 19.5 3.95702 19.5 4.61327Z" fill="black"/>
<path d="M25.0488 5.52734V5.22852C25.0488 4.66992 24.8926 4.22852 24.5801 3.9043C24.2676 3.58008 23.8672 3.41797 23.3789 3.41797C22.8672 3.41797 22.4707 3.59375 22.1895 3.94531C21.9082 4.29688 21.7676 4.77734 21.7676 5.38672C21.7676 5.99219 21.9082 6.4707 22.1895 6.82227C22.4707 7.17383 22.8672 7.34961 23.3789 7.34961C23.8672 7.34961 24.2676 7.1875 24.5801 6.86328C24.8926 6.53516 25.0488 6.08984 25.0488 5.52734ZM25.0371 8V6.91016C24.9082 7.26172 24.6777 7.55664 24.3457 7.79492C24.0137 8.0293 23.6152 8.14648 23.1504 8.14648C22.3965 8.14648 21.8066 7.88867 21.3809 7.37305C20.959 6.85352 20.748 6.19141 20.748 5.38672C20.748 4.86328 20.8379 4.39453 21.0176 3.98047C21.1973 3.56641 21.4707 3.23438 21.8379 2.98438C22.209 2.73438 22.6465 2.60938 23.1504 2.60938C23.6152 2.60938 24.0137 2.73047 24.3457 2.97266C24.6777 3.21094 24.9082 3.50586 25.0371 3.85742V0.441406H26.0332V8H25.0371Z" fill="black"/>
<path d="M27.3926 2.75586H28.3887V8H27.3926V2.75586ZM27.3691 1.56641V0.441406H28.4004V1.56641H27.3691Z" fill="black"/>
<path d="M33.0117 5.6621V5.41016L31.834 5.6621C31.6387 5.70507 31.4844 5.74218 31.3711 5.77343C31.2578 5.80468 31.1367 5.84765 31.0078 5.90233C30.8789 5.95311 30.7812 6.00976 30.7148 6.07226C30.6484 6.13085 30.5918 6.20898 30.5449 6.30664C30.502 6.40039 30.4805 6.50976 30.4805 6.63476C30.4805 6.86522 30.5566 7.05272 30.709 7.19726C30.8652 7.34179 31.0879 7.41405 31.377 7.41405C31.8457 7.41405 32.2344 7.25194 32.543 6.92772C32.8555 6.60351 33.0117 6.18163 33.0117 5.6621ZM33.9727 4.61327V6.96875C33.9727 7.24219 34.1074 7.37891 34.377 7.37891C34.5371 7.37891 34.6895 7.33788 34.834 7.25585V7.79492C34.627 8.00195 34.3594 8.10546 34.0312 8.10546C33.7617 8.10546 33.5371 8.01171 33.3574 7.82421C33.1816 7.63671 33.0781 7.38671 33.0469 7.07421C32.9023 7.38671 32.6562 7.64453 32.3086 7.84766C31.9609 8.04688 31.5781 8.14647 31.1602 8.14647C30.6484 8.14647 30.2402 8.01757 29.9355 7.75976C29.6348 7.49804 29.4844 7.14257 29.4844 6.69335C29.4844 6.45116 29.5332 6.23827 29.6309 6.05468C29.7285 5.86718 29.875 5.71093 30.0703 5.58593C30.2656 5.45702 30.4844 5.3496 30.7266 5.26366C30.9688 5.17772 31.2578 5.10156 31.5938 5.03516L33.0117 4.74805V4.54297C33.0117 4.17969 32.9102 3.89648 32.707 3.69336C32.5039 3.48633 32.2207 3.38281 31.8574 3.38281C31.1621 3.38281 30.7227 3.73438 30.5391 4.43749L29.6484 4.31444C29.7539 3.80272 30 3.39061 30.3867 3.07811C30.7773 2.76561 31.2715 2.60938 31.8691 2.60938C32.5371 2.60938 33.0547 2.77929 33.4219 3.11913C33.7891 3.45897 33.9727 3.95702 33.9727 4.61327Z" fill="black"/>
<path d="M36.6152 4.98828V8H35.6191V0.441406H36.6152V3.69336C36.7402 3.37305 36.9629 3.11328 37.2832 2.91406C37.6074 2.71094 37.9648 2.60938 38.3555 2.60938C38.7969 2.60938 39.1621 2.70508 39.4512 2.89648C39.7441 3.08398 39.9531 3.33398 40.0781 3.64648C40.207 3.95898 40.2715 4.32617 40.2715 4.74805V8H39.2754V4.83008C39.2754 4.38086 39.168 4.03125 38.9531 3.78125C38.7422 3.53125 38.4336 3.40625 38.0273 3.40625C37.625 3.40625 37.2891 3.55273 37.0195 3.8457C36.75 4.13477 36.6152 4.51562 36.6152 4.98828Z" fill="black"/>
</svg>
