<svg width="76" height="9" viewBox="0 0 76 9" fill="none" xmlns="http://www.w3.org/2000/svg">
<path d="M7.61719 2.62695C7.80469 3.11523 7.89844 3.64648 7.89844 4.2207C7.89844 4.79492 7.80469 5.32617 7.61719 5.81445C7.43359 6.30273 7.17578 6.71875 6.84375 7.0625C6.51562 7.40234 6.11914 7.66797 5.6543 7.85938C5.18945 8.05078 4.68555 8.14648 4.14258 8.14648C3.03711 8.14648 2.13477 7.7832 1.43555 7.05664C0.736328 6.32617 0.386719 5.38086 0.386719 4.2207C0.386719 3.06055 0.736328 2.11719 1.43555 1.39062C2.13477 0.660156 3.03711 0.294922 4.14258 0.294922C4.68555 0.294922 5.18945 0.390625 5.6543 0.582031C6.11914 0.773438 6.51562 1.04102 6.84375 1.38477C7.17578 1.72461 7.43359 2.13867 7.61719 2.62695ZM6.08789 6.43555C6.57227 5.88477 6.81445 5.14648 6.81445 4.2207C6.81445 3.29492 6.57227 2.55859 6.08789 2.01172C5.60742 1.46094 4.95898 1.18555 4.14258 1.18555C3.32617 1.18555 2.67383 1.46094 2.18555 2.01172C1.69727 2.5625 1.45312 3.29883 1.45312 4.2207C1.45312 5.14258 1.69727 5.87891 2.18555 6.42969C2.67383 6.98047 3.32617 7.25586 4.14258 7.25586C4.95898 7.25586 5.60742 6.98242 6.08789 6.43555Z" fill="black"/>
<path d="M9.93164 5.22852V5.52734C9.93164 6.08984 10.0879 6.53516 10.4004 6.86328C10.7168 7.1875 11.1191 7.34961 11.6074 7.34961C12.1152 7.34961 12.5078 7.17578 12.7852 6.82812C13.0664 6.47656 13.207 5.99609 13.207 5.38672C13.207 4.77734 13.0664 4.29688 12.7852 3.94531C12.5078 3.59375 12.1152 3.41797 11.6074 3.41797C11.1191 3.41797 10.7168 3.58008 10.4004 3.9043C10.0879 4.22852 9.93164 4.66992 9.93164 5.22852ZM9.93164 6.91016L9.71484 8H8.95898V0.441406H9.95508V3.85742C10.0801 3.50586 10.3086 3.21094 10.6406 2.97266C10.9727 2.73047 11.3711 2.60938 11.8359 2.60938C12.3359 2.60938 12.7695 2.73438 13.1367 2.98438C13.5078 3.23438 13.7832 3.56641 13.9629 3.98047C14.1465 4.39453 14.2383 4.86328 14.2383 5.38672C14.2383 6.1875 14.0234 6.84766 13.5938 7.36719C13.168 7.88672 12.5781 8.14648 11.8242 8.14648C11.3594 8.14648 10.959 8.0293 10.623 7.79492C10.291 7.55664 10.0605 7.26172 9.93164 6.91016Z" fill="black"/>
<path d="M18.5391 5.66211V5.41016L17.3613 5.66211C17.166 5.70508 17.0117 5.74219 16.8984 5.77344C16.7852 5.80469 16.6641 5.84766 16.5352 5.90234C16.4062 5.95312 16.3086 6.00977 16.2422 6.07227C16.1758 6.13086 16.1191 6.20898 16.0723 6.30664C16.0293 6.40039 16.0078 6.50977 16.0078 6.63477C16.0078 6.86523 16.084 7.05273 16.2363 7.19727C16.3926 7.3418 16.6152 7.41406 16.9043 7.41406C17.373 7.41406 17.7617 7.25195 18.0703 6.92773C18.3828 6.60352 18.5391 6.18164 18.5391 5.66211ZM19.5 4.61328V6.96875C19.5 7.24219 19.6348 7.37891 19.9043 7.37891C20.0645 7.37891 20.2168 7.33789 20.3613 7.25586V7.79492C20.1543 8.00195 19.8867 8.10547 19.5586 8.10547C19.2891 8.10547 19.0645 8.01172 18.8848 7.82422C18.709 7.63672 18.6055 7.38672 18.5742 7.07422C18.4297 7.38672 18.1836 7.64453 17.8359 7.84766C17.4883 8.04688 17.1055 8.14648 16.6875 8.14648C16.1758 8.14648 15.7676 8.01758 15.4629 7.75977C15.1621 7.49805 15.0117 7.14258 15.0117 6.69336C15.0117 6.45117 15.0605 6.23828 15.1582 6.05469C15.2559 5.86719 15.4023 5.71094 15.5977 5.58594C15.793 5.45703 16.0117 5.34961 16.2539 5.26367C16.4961 5.17773 16.7852 5.10156 17.1211 5.03516L18.5391 4.74805V4.54297C18.5391 4.17969 18.4375 3.89648 18.2344 3.69336C18.0312 3.48633 17.748 3.38281 17.3848 3.38281C16.6895 3.38281 16.25 3.73438 16.0664 4.4375L15.1758 4.31445C15.2812 3.80273 15.5273 3.39062 15.9141 3.07812C16.3047 2.76562 16.7988 2.60938 17.3965 2.60938C18.0645 2.60938 18.582 2.7793 18.9492 3.11914C19.3164 3.45898 19.5 3.95703 19.5 4.61328Z" fill="black"/>
<path d="M25.0488 5.52734V5.22852C25.0488 4.66992 24.8926 4.22852 24.5801 3.9043C24.2676 3.58008 23.8672 3.41797 23.3789 3.41797C22.8672 3.41797 22.4707 3.59375 22.1895 3.94531C21.9082 4.29688 21.7676 4.77734 21.7676 5.38672C21.7676 5.99219 21.9082 6.4707 22.1895 6.82227C22.4707 7.17383 22.8672 7.34961 23.3789 7.34961C23.8672 7.34961 24.2676 7.1875 24.5801 6.86328C24.8926 6.53516 25.0488 6.08984 25.0488 5.52734ZM25.0371 8V6.91016C24.9082 7.26172 24.6777 7.55664 24.3457 7.79492C24.0137 8.0293 23.6152 8.14648 23.1504 8.14648C22.3965 8.14648 21.8066 7.88867 21.3809 7.37305C20.959 6.85352 20.748 6.19141 20.748 5.38672C20.748 4.86328 20.8379 4.39453 21.0176 3.98047C21.1973 3.56641 21.4707 3.23438 21.8379 2.98438C22.209 2.73438 22.6465 2.60938 23.1504 2.60938C23.6152 2.60938 24.0137 2.73047 24.3457 2.97266C24.6777 3.21094 24.9082 3.50586 25.0371 3.85742V0.441406H26.0332V8H25.0371Z" fill="black"/>
<path d="M27.3926 2.75586H28.3887V8H27.3926V2.75586ZM27.3691 1.56641V0.441406H28.4004V1.56641H27.3691Z" fill="black"/>
<path d="M33.0117 5.66211V5.41016L31.834 5.66211C31.6387 5.70508 31.4844 5.74219 31.3711 5.77344C31.2578 5.80469 31.1367 5.84766 31.0078 5.90234C30.8789 5.95312 30.7812 6.00977 30.7148 6.07227C30.6484 6.13086 30.5918 6.20898 30.5449 6.30664C30.502 6.40039 30.4805 6.50977 30.4805 6.63477C30.4805 6.86523 30.5566 7.05273 30.709 7.19727C30.8652 7.3418 31.0879 7.41406 31.377 7.41406C31.8457 7.41406 32.2344 7.25195 32.543 6.92773C32.8555 6.60352 33.0117 6.18164 33.0117 5.66211ZM33.9727 4.61328V6.96875C33.9727 7.24219 34.1074 7.37891 34.377 7.37891C34.5371 7.37891 34.6895 7.33789 34.834 7.25586V7.79492C34.627 8.00195 34.3594 8.10547 34.0312 8.10547C33.7617 8.10547 33.5371 8.01172 33.3574 7.82422C33.1816 7.63672 33.0781 7.38672 33.0469 7.07422C32.9023 7.38672 32.6562 7.64453 32.3086 7.84766C31.9609 8.04688 31.5781 8.14648 31.1602 8.14648C30.6484 8.14648 30.2402 8.01758 29.9355 7.75977C29.6348 7.49805 29.4844 7.14258 29.4844 6.69336C29.4844 6.45117 29.5332 6.23828 29.6309 6.05469C29.7285 5.86719 29.875 5.71094 30.0703 5.58594C30.2656 5.45703 30.4844 5.34961 30.7266 5.26367C30.9688 5.17773 31.2578 5.10156 31.5938 5.03516L33.0117 4.74805V4.54297C33.0117 4.17969 32.9102 3.89648 32.707 3.69336C32.5039 3.48633 32.2207 3.38281 31.8574 3.38281C31.1621 3.38281 30.7227 3.73438 30.5391 4.4375L29.6484 4.31445C29.7539 3.80273 30 3.39062 30.3867 3.07812C30.7773 2.76562 31.2715 2.60938 31.8691 2.60938C32.5371 2.60938 33.0547 2.7793 33.4219 3.11914C33.7891 3.45898 33.9727 3.95703 33.9727 4.61328Z" fill="black"/>
<path d="M36.6152 4.98828V8H35.6191V0.441406H36.6152V3.69336C36.7402 3.37305 36.9629 3.11328 37.2832 2.91406C37.6074 2.71094 37.9648 2.60938 38.3555 2.60938C38.7969 2.60938 39.1621 2.70508 39.4512 2.89648C39.7441 3.08398 39.9531 3.33398 40.0781 3.64648C40.207 3.95898 40.2715 4.32617 40.2715 4.74805V8H39.2754V4.83008C39.2754 4.38086 39.168 4.03125 38.9531 3.78125C38.7422 3.53125 38.4336 3.40625 38.0273 3.40625C37.625 3.40625 37.2891 3.55273 37.0195 3.8457C36.75 4.13477 36.6152 4.51562 36.6152 4.98828Z" fill="black"/>
<path d="M43.916 6.26562C43.5918 5.66406 43.4297 4.98242 43.4297 4.2207C43.4297 3.45898 43.5918 2.7793 43.916 2.18164C44.2441 1.58008 44.6895 1.11523 45.252 0.787109C45.8145 0.458984 46.4414 0.294922 47.1328 0.294922C48.1875 0.294922 49.0195 0.591797 49.6289 1.18555C50.2422 1.77539 50.5859 2.57031 50.6602 3.57031L49.6523 3.61719C49.6094 2.89453 49.3672 2.30859 48.9258 1.85938C48.4883 1.41016 47.8906 1.18555 47.1328 1.18555C46.3555 1.18555 45.7207 1.46289 45.2285 2.01758C44.7402 2.56836 44.4961 3.30273 44.4961 4.2207C44.4961 5.13867 44.7402 5.875 45.2285 6.42969C45.7207 6.98047 46.3555 7.25586 47.1328 7.25586C47.8906 7.25586 48.4883 7.03125 48.9258 6.58203C49.3672 6.12891 49.6094 5.54102 49.6523 4.81836L50.6602 4.86523C50.5859 5.86523 50.2422 6.66211 49.6289 7.25586C49.0195 7.84961 48.1875 8.14648 47.1328 8.14648C46.4414 8.14648 45.8145 7.98242 45.252 7.6543C44.6895 7.32617 44.2441 6.86328 43.916 6.26562Z" fill="black"/>
<path d="M52.4121 5.38672C52.4121 5.98438 52.5566 6.4668 52.8457 6.83398C53.1387 7.19727 53.543 7.37891 54.0586 7.37891C54.582 7.37891 54.9902 7.19727 55.2832 6.83398C55.5801 6.4668 55.7285 5.98438 55.7285 5.38672C55.7285 4.78516 55.5801 4.30273 55.2832 3.93945C54.9902 3.57617 54.582 3.39453 54.0586 3.39453C53.5391 3.39453 53.1348 3.57617 52.8457 3.93945C52.5566 4.30273 52.4121 4.78516 52.4121 5.38672ZM55.9863 3.38867C56.4941 3.9082 56.748 4.57422 56.748 5.38672C56.748 6.19922 56.4941 6.86328 55.9863 7.37891C55.4785 7.89062 54.8359 8.14648 54.0586 8.14648C53.2852 8.14648 52.6465 7.89062 52.1426 7.37891C51.6426 6.86328 51.3926 6.19922 51.3926 5.38672C51.3926 4.57422 51.6426 3.9082 52.1426 3.38867C52.6465 2.86914 53.2852 2.60938 54.0586 2.60938C54.8359 2.60938 55.4785 2.86914 55.9863 3.38867Z" fill="black"/>
<path d="M61.1484 3.47656H58.9629V8H57.9844V3.47656H57.1758V2.75586H57.9844V2.19336C57.9844 1.65039 58.1367 1.21875 58.4414 0.898438C58.7461 0.578125 59.1523 0.417969 59.6602 0.417969C60.1289 0.417969 60.5527 0.544922 60.9316 0.798828L60.668 1.46094C60.3906 1.26172 60.0996 1.16211 59.7949 1.16211C59.5176 1.16211 59.3086 1.25195 59.168 1.43164C59.0312 1.60742 58.9629 1.85742 58.9629 2.18164V2.75586H61.1484V2.16992C61.1484 1.60352 61.3027 1.15039 61.6113 0.810547C61.9199 0.466797 62.3457 0.294922 62.8887 0.294922C63.3379 0.294922 63.6934 0.394531 63.9551 0.59375C64.2207 0.792969 64.4141 1.09375 64.5352 1.49609L63.8496 1.73633C63.7793 1.51758 63.666 1.34375 63.5098 1.21484C63.3574 1.08203 63.166 1.01562 62.9355 1.01562C62.666 1.01562 62.4648 1.10547 62.332 1.28516C62.1992 1.46484 62.1328 1.71484 62.1328 2.03516V2.75586H63.6094V3.47656H62.1328V8H61.1484V3.47656Z" fill="black"/>
<path d="M68.2559 6.14258L69.082 6.23633C68.9492 6.83789 68.6699 7.30664 68.2441 7.64258C67.8184 7.97852 67.2812 8.14648 66.6328 8.14648C65.8438 8.14648 65.1953 7.90039 64.6875 7.4082C64.1836 6.91602 63.9316 6.26562 63.9316 5.45703C63.9316 4.63281 64.1836 3.95312 64.6875 3.41797C65.1914 2.87891 65.8242 2.60938 66.5859 2.60938C67.125 2.60938 67.5879 2.73047 67.9746 2.97266C68.3613 3.21094 68.6465 3.52539 68.8301 3.91602C69.0137 4.30273 69.1055 4.74023 69.1055 5.22852V5.62109H64.9277C64.9512 6.12891 65.125 6.54688 65.4492 6.875C65.7734 7.19922 66.1719 7.36133 66.6445 7.36133C67.5 7.36133 68.0371 6.95508 68.2559 6.14258ZM64.9512 4.97656H68.0859C68.0664 4.52344 67.9277 4.14258 67.6699 3.83398C67.416 3.52148 67.0547 3.36523 66.5859 3.36523C66.1328 3.36523 65.7617 3.51953 65.4727 3.82812C65.1875 4.13672 65.0137 4.51953 64.9512 4.97656Z" fill="black"/>
<path d="M74.1621 6.14258L74.9883 6.23633C74.8555 6.83789 74.5762 7.30664 74.1504 7.64258C73.7246 7.97852 73.1875 8.14648 72.5391 8.14648C71.75 8.14648 71.1016 7.90039 70.5938 7.4082C70.0898 6.91602 69.8379 6.26562 69.8379 5.45703C69.8379 4.63281 70.0898 3.95312 70.5938 3.41797C71.0977 2.87891 71.7305 2.60938 72.4922 2.60938C73.0312 2.60938 73.4941 2.73047 73.8809 2.97266C74.2676 3.21094 74.5527 3.52539 74.7363 3.91602C74.9199 4.30273 75.0117 4.74023 75.0117 5.22852V5.62109H70.834C70.8574 6.12891 71.0312 6.54688 71.3555 6.875C71.6797 7.19922 72.0781 7.36133 72.5508 7.36133C73.4062 7.36133 73.9434 6.95508 74.1621 6.14258ZM70.8574 4.97656H73.9922C73.9727 4.52344 73.834 4.14258 73.5762 3.83398C73.3223 3.52148 72.9609 3.36523 72.4922 3.36523C72.0391 3.36523 71.668 3.51953 71.3789 3.82812C71.0938 4.13672 70.9199 4.51953 70.8574 4.97656Z" fill="black"/>
</svg>
